#!OML:ASF H:\MichaelJackson\Top Level 1\Subject 1\Session 1\male.ASF
:FULLY-SPECIFIED
:DEGREES
423
root 22.3043 16.7231 -29.8261 -29.1106 65.8205 -28.2417
lowerback 12.0447 -1.92803 5.08788
upperback 3.46274 -1.83251 0.283113
thorax -3.26753 -0.882618 -2.30295
lowerneck -12.1612 4.80356 7.61249
upperneck 9.42841 5.21434 -0.382254
head 5.03439 2.81481 -0.921835
rclavicle 8.74653e-015 -1.90833e-014
rhumerus -43.5589 -8.83187 -87.6652
rradius 106.416
rwrist 8.36759
rhand -19.5033 -25.3006
rfingers 7.12502
rthumb 6.8193 -415.171
lclavicle 8.74653e-015 -1.90833e-014
lhumerus -52.4748 -31.7333 105.944
lradius 71.7837
lwrist 15.8117
lhand 10.601 20.9931
lfingers 7.12502
lthumb 35.6961 47.3837
rfemur -91.81 -14.267 34.4928
rtibia 94.6184
rfoot 20.8323 31.4042
rtoes -27.4998
lfemur -11.4233 15.4298 -13.2572
ltibia 34.1997
lfoot -16.0381 12.6338
ltoes 6.01386
424
root 22.3351 16.7167 -29.783 -28.9238 67.3903 -28.2805
lowerback 11.6801 -1.69906 4.23377
upperback 3.28322 -1.66609 0.00770865
thorax -3.22915 -0.803364 -2.14059
lowerneck -12.131 4.77818 7.55105
upperneck 9.18843 5.17833 -0.220185
head 4.94709 2.80157 -0.868271
rclavicle -1.80894e-014 -1.59028e-015
rhumerus -44.05 -8.97074 -88.4741
rradius 106.686
rwrist 5.49227
rhand -17.8152 -25.4195
rfingers 7.12502
rthumb 8.44868 -415.231
lclavicle -1.80894e-014 -1.59028e-015
lhumerus -52.4289 -31.4218 105.813
lradius 71.8974
lwrist 15.6951
lhand 9.5322 21.8552
lfingers 7.12502
lthumb 34.6825 48.4848
rfemur -91.6527 -13.378 35.0701
rtibia 97.1847
rfoot 24.621 32.2365
rtoes -27.0481
lfemur -11.7924 14.9477 -14.0458
ltibia 34.2719
lfoot -16.5048 11.8009
ltoes 5.81132
425
root 22.3719 16.7086 -29.7406 -28.4724 69.1364 -27.839
lowerback 11.5006 -1.45534 3.21773
upperback 3.16091 -1.48526 -0.34309
thorax -3.2316 -0.71369 -1.96244
lowerneck -12.1183 4.69207 7.39985
upperneck 8.91924 5.07347 -0.0425061
head 4.84836 2.75161 -0.801688
rclavicle 2.92213e-014 0
rhumerus -44.46 -9.01924 -89.2745
rradius 106.775
rwrist 3.42543
rhand -16.4122 -25.5808
rfingers 7.12502
rthumb 9.80249 -415.333
lclavicle 2.92213e-014 0
lhumerus -52.4179 -31.2133 105.726
lradius 72.0385
lwrist 15.7549
lhand 8.32673 22.6824
lfingers 7.12502
lthumb 33.5376 49.5676
rfemur -91.1423 -12.7038 35.4674
rtibia 99.4308
rfoot 27.553 32.4378
rtoes -26.6828
lfemur -11.8582 14.4386 -15.0414
ltibia 34.1948
lfoot -16.9338 10.8863
ltoes 5.88571
426
root 22.4147 16.6974 -29.6977 -27.726 71.0215 -26.963
lowerback 11.426 -1.21897 2.06409
upperback 3.08817 -1.32273 -0.747929
thorax -3.24205 -0.629485 -1.75754
lowerneck -12.1219 4.58483 7.22441
upperneck 8.66734 4.9446 0.124448
head 4.75695 2.68854 -0.73603
rclavicle 1.17283e-014 9.54166e-015
rhumerus -44.768 -8.82307 -90.1823
rradius 106.664
rwrist 2.15432
rhand -15.8096 -25.7994
rfingers 7.12502
rthumb 10.3839 -415.523
lclavicle 1.17283e-014 9.54166e-015
lhumerus -52.3899 -31.0447 105.606
lradius 72.1733
lwrist 15.9401
lhand 7.07104 23.4613
lfingers 7.12502
lthumb 32.3433 50.5978
rfemur -90.3375 -12.1857 35.7029
rtibia 101.334
rfoot 29.3064 32.3036
rtoes -26.5193
lfemur -11.7253 13.9871 -16.1693
ltibia 34.0643
lfoot -17.3917 9.80594
ltoes 6.41426
427
root 22.4622 16.684 -29.655 -26.9246 72.9923 -26.015
lowerback 11.3634 -1.00644 0.906207
upperback 3.04273 -1.18697 -1.13677
thorax -3.2342 -0.556155 -1.52898
lowerneck -12.1541 4.46427 7.01326
upperneck 8.47301 4.80401 0.263211
head 4.68804 2.61772 -0.673105
rclavicle -4.07509e-014 2.38542e-014
rhumerus -44.9738 -8.30267 -91.1876
rradius 106.35
rwrist 1.59243
rhand -16.4036 -26.0776
rfingers 7.12502
rthumb 9.81078 -415.829
lclavicle -4.07509e-014 2.38542e-014
lhumerus -52.3091 -30.8915 105.478
lradius 72.2524
lwrist 16.1248
lhand 5.79156 24.1568
lfingers 7.12502
lthumb 31.1247 51.5344
rfemur -89.3203 -11.7673 35.856
rtibia 102.846
rfoot 29.9675 31.9798
rtoes -26.4453
lfemur -11.556 13.6091 -17.2777
ltibia 33.9744
lfoot -17.8809 8.54361
ltoes 7.38999
428
root 22.5134 16.6689 -29.6127 -26.3178 74.9632 -25.3319
lowerback 11.2473 -0.808066 -0.142965
upperback 2.99899 -1.05212 -1.46966
thorax -3.19877 -0.482785 -1.3036
lowerneck -12.2117 4.33148 6.77205
upperneck 8.36163 4.6511 0.381479
head 4.64902 2.54017 -0.611207
rclavicle -6.75868e-015 -1.59028e-015
rhumerus -45.1068 -7.46198 -92.2758
rradius 105.857
rwrist 1.57894
rhand -17.9923 -26.4158
rfingers 7.12502
rthumb 8.27781 -416.234
lclavicle -6.75868e-015 -1.59028e-015
lhumerus -52.1816 -30.7661 105.359
lradius 72.261
lwrist 16.2358
lhand 4.51312 24.7393
lfingers 7.12502
lthumb 29.9055 52.3436
rfemur -88.1411 -11.3087 35.9973
rtibia 103.913
rfoot 29.5883 31.6256
rtoes -26.7345
lfemur -11.4598 13.3805 -18.2312
ltibia 33.9973
lfoot -18.4827 6.96605
ltoes 8.943
429
root 22.5669 16.653 -29.5731 -26.5152 76.959 -25.5817
lowerback 11.0545 -0.658334 -0.950617
upperback 2.9344 -0.948391 -1.71639
thorax -3.14836 -0.426266 -1.12079
lowerneck -12.2833 4.18762 6.50702
upperneck 8.34254 4.48723 0.477748
head 4.64116 2.45684 -0.551834
rclavicle 1.70955e-014 -1.59028e-015
rhumerus -45.2068 -6.35093 -93.3759
rradius 105.239
rwrist 1.99622
rhand -20.3214 -26.9904
rfingers 7.12502
rthumb 6.02957 -416.885
lclavicle 1.70955e-014 -1.59028e-015
lhumerus -52.0267 -30.6695 105.274
lradius 72.2
lwrist 16.2277
lhand 3.23598 25.2251
lfingers 7.12502
lthumb 28.686 53.0424
rfemur -86.8866 -10.8531 36.1789
rtibia 104.507
rfoot 28.3951 31.3514
rtoes -27.5172
lfemur -11.5343 13.1841 -18.9506
ltibia 34.1681
lfoot -19.1315 5.15145
ltoes 10.8335
430
root 22.6224 16.6371 -29.538 -28.1009 78.9943 -27.4101
lowerback 10.7163 -0.572095 -1.48623
upperback 2.82913 -0.892422 -1.87235
thorax -3.06497 -0.396082 -0.991043
lowerneck -12.356 4.03606 6.23752
upperneck 8.41415 4.31521 0.547563
head 4.66255 2.36934 -0.499513
rclavicle 1.63003e-014 1.74931e-014
rhumerus -45.3049 -5.0261 -94.4263
rradius 104.552
rwrist 2.63303
rhand -22.9078 -27.768
rfingers 7.12502
rthumb 3.53209 -417.719
lclavicle 1.63003e-014 1.74931e-014
lhumerus -51.8506 -30.5858 105.227
lradius 72.0811
lwrist 16.1076
lhand 1.96088 25.6147
lfingers 7.12502
lthumb 27.4672 53.6318
rfemur -85.682 -10.4013 36.3856
rtibia 104.632
rfoot 26.7336 31.1088
rtoes -28.6109
lfemur -11.869 12.9306 -19.4514
ltibia 34.4913
lfoot -19.7757 3.17875
ltoes 12.9378
431
root 22.6792 16.6227 -29.5071 -32.1627 81.0045 -31.8591
lowerback 10.2852 -0.540975 -1.7271
upperback 2.68086 -0.873821 -1.95134
thorax -2.97889 -0.38722 -0.942565
lowerneck -12.424 3.87357 5.9812
upperneck 8.57518 4.12668 0.607792
head 4.71169 2.27517 -0.452673
rclavicle -2.0276e-014 4.77083e-015
rhumerus -45.4538 -3.59274 -95.389
rradius 103.867
rwrist 3.28036
rhand -25.3431 -28.5817
rfingers 7.12502
rthumb 1.18017 -418.558
lclavicle -2.0276e-014 4.77083e-015
lhumerus -51.6843 -30.5292 105.21
lradius 71.9277
lwrist 15.908
lhand 0.667003 25.9123
lfingers 7.12502
lthumb 26.2291 54.1197
rfemur -84.5096 -9.91267 36.597
rtibia 104.32
rfoot 24.7199 30.9558
rtoes -30.033
lfemur -12.4056 12.5853 -19.7126
ltibia 34.9311
lfoot -20.3768 1.12188
ltoes 15.13
432
root 22.7386 16.6085 -29.479 -40.461 82.9392 -40.6024
lowerback 9.81855 -0.555243 -1.75725
upperback 2.51809 -0.891699 -1.98068
thorax -2.89053 -0.398228 -0.956665
lowerneck -12.5063 3.69259 5.72851
upperneck 8.80675 3.90964 0.681418
head 4.78494 2.16928 -0.403602
rclavicle 4.37326e-015 0
rhumerus -45.6297 -2.1413 -96.2169
rradius 103.202
rwrist 3.77779
rhand -27.3144 -29.1981
rfingers 7.12502
rthumb -0.723701 -419.177
lclavicle 4.37326e-015 0
lhumerus -51.5191 -30.5196 105.211
lradius 71.7493
lwrist 15.6632
lhand -0.641483 26.1241
lfingers 7.12502
lthumb 24.9758 54.5117
rfemur -83.3767 -9.46802 36.7475
rtibia 103.656
rfoot 22.5261 30.8789
rtoes -31.581
lfemur -13.0364 12.0981 -19.8019
ltibia 35.4363
lfoot -20.9058 -0.952625
ltoes 17.2975
433
root 22.7997 16.5948 -29.4544 -55.9408 84.655 -56.5569
lowerback 9.34638 -0.592646 -1.68973
upperback 2.35623 -0.930609 -2.00574
thorax -2.79923 -0.420315 -1.01906
lowerneck -12.6594 3.47316 5.42373
upperneck 9.09026 3.64115 0.787297
head 4.88397 2.03936 -0.338869
rclavicle 1.78906e-015 -1.11319e-014
rhumerus -45.8332 -0.7295 -96.8891
rradius 102.614
rwrist 3.9409
rhand -28.8313 -29.4923
rfingers 7.12502
rthumb -2.18879 -419.461
lclavicle 1.78906e-015 -1.11319e-014
lhumerus -51.3019 -30.5674 105.224
lradius 71.5329
lwrist 15.3728
lhand -1.95931 26.2419
lfingers 7.12502
lthumb 23.7124 54.7992
rfemur -82.3292 -9.07688 36.6731
rtibia 102.731
rfoot 20.3108 30.8176
rtoes -33.0048
lfemur -13.7201 11.4958 -19.8789
ltibia 35.9502
lfoot -21.3381 -3.03885
ltoes 19.4191
434
root 22.8632 16.5819 -29.4302 -83.6213 85.6532 -84.662
lowerback 8.92733 -0.645377 -1.58602
upperback 2.22101 -0.98683 -2.02542
thorax -2.70995 -0.450814 -1.0944
lowerneck -12.8712 3.21164 5.0634
upperneck 9.4029 3.31723 0.939385
head 5.00013 1.88395 -0.254592
rclavicle 1.39149e-015 1.90833e-014
rhumerus -46.0447 0.564373 -97.4081
rradius 102.095
rwrist 3.78015
rhand -29.8252 -29.3119
rfingers 7.12502
rthumb -3.14866 -419.268
lclavicle 1.39149e-015 1.90833e-014
lhumerus -51.0164 -30.6332 105.227
lradius 71.2685
lwrist 15.0086
lhand -3.28989 26.2793
lfingers 7.12502
lthumb 22.4357 54.9962
rfemur -81.2939 -8.74401 36.3725
rtibia 101.613
rfoot 18.226 30.655
rtoes -34.0935
lfemur -14.3487 10.7438 -19.9328
ltibia 36.439
lfoot -21.6698 -5.08399
ltoes 21.3813
435
root 22.9289 16.5709 -29.4053 -116.773 85.2648 -118.168
lowerback 8.58189 -0.694071 -1.49057
upperback 2.11864 -1.03891 -2.04233
thorax -2.62701 -0.478612 -1.16267
lowerneck -13.1449 2.89323 4.62735
upperneck 9.72828 2.92188 1.14051
head 5.12919 1.69449 -0.148391
rclavicle 5.96354e-015 -1.43125e-014
rhumerus -46.2748 1.71249 -97.764
rradius 101.661
rwrist 3.36056
rhand -30.3153 -28.7405
rfingers 7.12502
rthumb -3.62191 -418.689
lclavicle 5.96354e-015 -1.43125e-014
lhumerus -50.6413 -30.696 105.217
lradius 70.947
lwrist 14.5785
lhand -4.61073 26.2385
lfingers 7.12502
lthumb 21.1674 55.1029
rfemur -80.2459 -8.41635 35.8156
rtibia 100.36
rfoot 16.3636 30.3195
rtoes -34.7954
lfemur -14.8863 9.89394 -19.9806
ltibia 36.8765
lfoot -21.8912 -7.07821
ltoes 23.1656
436
root 22.9973 16.5607 -29.3783 -139.272 83.6568 -140.938
lowerback 8.31811 -0.722964 -1.42467
upperback 2.05404 -1.06737 -2.06058
thorax -2.54942 -0.493761 -1.21794
lowerneck -13.4643 2.51364 4.11615
upperneck 10.0411 2.45227 1.38461
head 5.26211 1.46885 -0.0232541
rclavicle -1.15295e-014 -1.59028e-015
rhumerus -46.5093 2.67984 -97.9906
rradius 101.298
rwrist 2.78398
rhand -30.3692 -27.8867
rfingers 7.12502
rthumb -3.67399 -417.835
lclavicle -1.15295e-014 -1.59028e-015
lhumerus -50.169 -30.7262 105.172
lradius 70.5743
lwrist 14.0792
lhand -5.91316 26.1254
lfingers 7.12502
lthumb 19.9158 55.1249
rfemur -79.1701 -8.0589 35.0348
rtibia 99.0134
rfoot 14.9023 29.7492
rtoes -35.0464
lfemur -15.3107 9.02689 -20.0152
ltibia 37.2572
lfoot -22.013 -9.06693
ltoes 24.8326
437
root 23.0689 16.5524 -29.348 -151.657 81.5127 -153.513
lowerback 8.13148 -0.709594 -1.44124
upperback 2.01624 -1.04658 -2.07665
thorax -2.48467 -0.483285 -1.22914
lowerneck -13.8026 2.07407 3.53792
upperneck 10.3416 1.91178 1.66512
head 5.39646 1.20867 0.117102
rclavicle 3.00165e-014 3.18055e-015
rhumerus -46.7684 3.45914 -98.0971
rradius 100.996
rwrist 2.16479
rhand -30.1882 -27.0546
rfingers 7.12502
rthumb -3.49922 -417.006
lclavicle 3.00165e-014 3.18055e-015
lhumerus -49.6257 -30.6721 105.097
lradius 70.1613
lwrist 13.517
lhand -7.19536 25.9525
lfingers 7.12502
lthumb 18.6829 55.0753
rfemur -78.0346 -7.57183 34.0133
rtibia 97.6044
rfoot 13.8508 28.9507
rtoes -34.9624
lfemur -15.6104 8.24034 -20.0422
ltibia 37.5793
lfoot -22.0381 -11.1072
ltoes 26.5068
